<svg xmlns="http://www.w3.org/2000/svg" width="22.969" height="22.855" viewBox="0 0 22.969 22.855">
  <path id="settings_FILL0_wght400_GRAD0_opsz24" d="M86.342-857.145l-.457-3.657a4.333,4.333,0,0,1-.7-.343q-.329-.2-.643-.429l-3.4,1.428L78-865.573l2.943-2.228a2.727,2.727,0,0,1-.029-.386v-.771a2.728,2.728,0,0,1,.029-.386L78-871.572,81.143-877l3.4,1.428A7.787,7.787,0,0,1,85.2-876a5.764,5.764,0,0,1,.686-.343L86.342-880h6.285l.457,3.657a4.343,4.343,0,0,1,.7.343q.329.2.643.429l3.4-1.428,3.143,5.428-2.943,2.228a2.728,2.728,0,0,1,.029.386v.771A1.4,1.4,0,0,1,98-867.8l2.943,2.228L97.8-860.145l-3.371-1.428a7.774,7.774,0,0,1-.657.429,5.746,5.746,0,0,1-.686.343l-.457,3.657Zm2-2.286H90.6l.4-3.028a6.406,6.406,0,0,0,1.643-.671,6.829,6.829,0,0,0,1.386-1.071l2.828,1.171,1.114-1.943-2.457-1.857a4.032,4.032,0,0,0,.2-.843,7.025,7.025,0,0,0,.057-.9,7.027,7.027,0,0,0-.057-.9,4.032,4.032,0,0,0-.2-.843l2.457-1.857-1.114-1.943-2.828,1.2a6.347,6.347,0,0,0-1.386-1.1A6.406,6.406,0,0,0,91-874.686l-.371-3.028H88.37l-.4,3.028a6.406,6.406,0,0,0-1.643.671,6.829,6.829,0,0,0-1.386,1.071l-2.828-1.171L81-872.172l2.457,1.828a4.65,4.65,0,0,0-.2.857,6.925,6.925,0,0,0-.057.914,6.7,6.7,0,0,0,.057.886,4.649,4.649,0,0,0,.2.857L81-864.973l1.114,1.943,2.828-1.2a6.347,6.347,0,0,0,1.386,1.1,6.406,6.406,0,0,0,1.643.671Zm1.2-5.142a3.854,3.854,0,0,0,2.828-1.171,3.854,3.854,0,0,0,1.171-2.828A3.854,3.854,0,0,0,92.37-871.4a3.854,3.854,0,0,0-2.828-1.171A3.84,3.84,0,0,0,86.7-871.4a3.878,3.878,0,0,0-1.157,2.828,3.878,3.878,0,0,0,1.157,2.828A3.84,3.84,0,0,0,89.542-864.573ZM89.485-868.573Z" transform="translate(-78 880)"/>
</svg>
